<svg xmlns="http://www.w3.org/2000/svg" viewBox="0 0 160 50" overflow="hidden" preserveAspectRatio="xMidYMid meet" id="eaf-dae9:0"><defs><clipPath id="eaf-dae9:1"><rect x="0" y="0" width="160" height="50"></rect></clipPath></defs><g clip-path="url('#eaf-dae9:1')" style="isolation: isolate;"><g><path transform="matrix(0.35719549583172755 0 0 0.35719549583172755 -15.754082969267543 -6.50424125399228)" fill="white" d="M 387.6000061 142.52000427 L 369.80999756 142.52000427 L 369.80999756 102.75 L 335.70001221 102.75 C 335.58001709 104.95999908 335.70001221 107.16000366 335.64001465 109.34999847 C 335.58001709 111.53999329 335.64001465 113.69000244 335.64001465 115.84999847 L 335.64001465 142.30000305 C 334.45001221 142.69000244 320.47000122 142.82000732 317.93002319 142.47000122 Q 317.82684326 141.89399719 317.79000854 141.30999756 C 317.79000854 114.97999573 317.8500061 88.63999939 317.79000854 62.30999756 C 317.79000854 48.84999847 326.43002319 36.39999771 338.88000488 31.22999763 C 356.88000488 23.75999832 378.54000854 31.71999741 385.83001709 51.29999542 Q 387.72103882 56.41072845 387.69000244 61.8599968 L 387.69000244 141 C 387.67001343 141.49000549 387.63000488 142 387.6000061 142.52000427 Z M 369.73999023 85.71000671 C 369.73999023 85.15000916 369.80999756 84.78000641 369.80999756 84.4200058 L 369.80999756 62.4200058 Q 369.77532959 60.27492142 369.23001099 58.20000458 C 366.63000488 48.1000061 355.46002197 42.51000595 346.14001465 46.72000504 C 339.14001465 49.87000656 335.80001831 55.51000595 335.69000244 63.06000519 C 335.58001709 70.19000244 335.69000244 77.33000183 335.69000244 84.46000671 C 335.69000244 84.86000824 335.76998901 85.27000427 335.80999756 85.74000549 L 369.73999023 85.71000671 Z M 466 29 L 466 30.87999916 C 466 51.02999878 465.80999756 71.16999817 466.05999756 91.30999756 Q 466.11135864 102.87160492 459.22109985 112.15584564 Q 452.33081055 121.44009399 441.25 124.73999786 C 440.83999634 124.84999847 440.45001221 125 439.92999268 125.16999817 L 439.92999268 142.6499939 L 421.97998047 142.6499939 L 421.97998047 125.16999817 C 421.06997681 124.86000061 420.26998901 124.62999725 419.48999023 124.33999634 C 407.38998413 119.86999512 399.53997803 111.56999207 396.72000122 98.83999634 Q 396.07351685 95.64723206 396.11999512 92.38999939 Q 396.04000854 61.52999878 396.11999512 30.68000031 L 396.11999512 29.14999962 C 397.3500061 28.79999924 411.26998901 28.69000053 413.94000244 29 C 413.94000244 29.62999916 414 30.29000092 414 31 L 414 92 Q 413.81860352 99.72136688 419.61999512 104.81999969 C 424.5 109.19000244 430.19000244 110.51999664 436.41998291 108.38999939 C 442.64996338 106.26000214 446.53997803 101.69000244 447.85998535 95.15000153 Q 448.21099854 92.87290192 448.13998413 90.56999969 L 448.13998413 29 L 466 29 Z M 195.38000488 132.28999329 L 207.83000183 120 C 208.13999939 120.33000183 208.38999939 120.56999969 208.61999512 120.83999634 C 212.56999207 125.45999908 217.61999512 126.98999786 223.44000244 125.66999817 Q 228.99055481 124.39234161 232.44000244 119.86000061 Q 235.46412659 116.05238342 235.44000244 111.19000244 Q 235.68693542 102.02607727 229.11000061 95.63999939 Q 225.3260498 91.88465881 220.77999878 89.09999847 C 218.8500061 87.88999939 216.86999512 86.77999878 214.88999939 85.65999603 Q 207.24151611 81.6178894 201.66999817 75 Q 195.49887085 67.39369202 195.34999084 57.59999847 C 195.21998596 53.20999908 195.57998657 48.91999817 197.43998718 44.88999939 C 201.6599884 35.73999786 208.8099823 30.34999847 218.73999023 28.88999939 Q 231.38327026 26.70407104 241.4099884 34.70999908 C 242.92999268 35.90999985 244.25999451 37.34999847 245.52998352 38.52999878 L 232.61997986 51.38999939 C 232.61997986 51.32999802 232.36997986 50.98999786 232.17997742 50.64999771 C 230.17997742 47.19999695 227.26997375 45.26999664 223.25997925 45.33999634 Q 217.03158569 45.31219864 214.25997925 50.88999557 C 212.53997803 54.0399971 212.97998047 57.3599968 214.25997925 60.53999329 Q 215.12388611 62.51092148 216.52998352 64.13999176 Q 219.57402039 67.75478363 223.52998352 70.33998871 C 226.85998535 72.57998657 230.22998047 74.76998901 233.60998535 76.93998718 C 240.67999268 81.48999023 246.45999146 87.21998596 250.12998962 94.93998718 Q 252.58331299 100.17998505 253.12998962 105.93998718 Q 253.8494873 111.32189941 252.96998596 116.67998505 Q 250.50138855 130.17944336 238.8999939 137.50997925 Q 228.86576843 144.1446228 216.8999939 142.90997314 Q 205.03808594 141.99597168 196.53999329 133.66996765 Q 196.13955688 133.28482056 195.76998901 132.8699646 Q 195.54884338 132.59754944 195.37998962 132.28996277 L 195.38000488 132.28999329 Z M 273.61999512 142.36000061 L 273.61999512 45.68999863 L 250.55999756 45.68999863 C 250.20999146 44.39999771 250.11000061 31.73999786 250.36999512 29.11999893 C 251.47999573 28.78999901 311.91998291 28.64999962 314.66998291 28.96999931 C 314.9699707 30.09999847 315.07998657 42.69999695 314.78997803 45.61000061 C 312.89996338 45.69000244 310.95999146 45.61000061 309.02996826 45.61000061 L 291.6000061 45.61000061 C 291.42999268 49.74000168 291.54000854 53.74000168 291.52001953 57.72999954 C 291.50003052 61.71999741 291.52001953 65.72999573 291.52001953 69.79000092 L 291.52001953 142.25 C 290.29000854 142.71000671 275.34002686 142.77000427 273.62002563 142.36000061 L 273.61999512 142.36000061 Z"></path><g transform="matrix(0.01237979765519462 0 0 -0.01237979765519462 -6.611713431816366 55.40389879508855)"><path transform="translate(0 -0.00012207)" fill="white" d="M 2434 4181 C 2183 4113 1986 3924 1900 3670 C 1869 3579 1861 3373 1884 3280 C 1906 3192 1980 3042 2176 2689 L 2340 2393 L 2340 2142 L 2340 1892 L 2376 1843 C 2477 1709 2554 1621 2564 1627 C 2577 1635 2792 1799 2834 1833 L 2863 1857 L 2825 1886 C 2805 1902 2777 1924 2764 1935 L 2740 1955 L 2801 2004 L 2863 2053 L 2839 2074 C 2825 2086 2795 2111 2771 2131 L 2727 2167 L 2793 2216 C 2829 2243 2859 2268 2860 2272 C 2860 2276 2847 2294 2831 2312 C 2772 2380 2764 2360 2971 2638 C 3358 3160 3390 3226 3377 3490 C 3364 3768 3196 4016 2939 4134 C 2839 4180 2795 4189 2637 4195 C 2526 4200 2493 4197 2434 4181 Z M 2740 3709 C 2798 3683 2855 3627 2886 3568 C 2920 3501 2920 3389 2886 3322 C 2857 3266 2787 3198 2733 3174 C 2644 3136 2520 3158 2430 3230 C 2340 3301 2308 3460 2362 3565 C 2391 3621 2464 3694 2513 3715 C 2563 3737 2686 3734 2740 3709 Z M 2458 2065 C 2460 1936 2459 1830 2456 1830 C 2452 1830 2436 1845 2420 1863 L 2391 1895 L 2390 2107 C 2390 2223 2393 2326 2396 2335 C 2402 2350 2406 2348 2429 2326 L 2455 2300 L 2458 2065 Z" id="eaf-dae9:2"></path><path fill="white" d="M 1470 1558 L 1127 1225 L 2550 1222 C 3333 1221 3976 1223 3979 1226 C 3982 1229 3834 1380 3650 1560 L 3315 1889 L 3210 1889 L 3105 1889 L 2986 1800 L 2867 1710 L 3051 1710 L 3235 1710 L 3415 1530 L 3595 1350 L 2565 1350 L 1535 1350 L 1715 1530 L 1895 1710 L 2098 1710 C 2210 1710 2300 1714 2298 1718 C 2297 1722 2264 1763 2225 1808 L 2155 1889 L 1984 1890 L 1814 1890 L 1470 1558 Z"></path><path fill="white" d="M 1080 1030 L 1080 910 L 2555 910 L 4030 910 L 4030 1030 L 4030 1150 L 2555 1150 L 1080 1150 L 1080 1030 Z"></path></g></g></g><script>!function(){"use strict";function t(t,n,e,i,r,s,o){let u=t;for(let e=0;e&lt;8;e++){const e=n*u*u*u+i*u*u+s*u-t;if(Math.abs(e)&lt;=5e-5)break;const r=3*n*u*u+2*i*u+s;u-=2*e*r/(2*r*r-e*(6*n*u+2*i))}return((e*u+r)*u+o)*u}const n=[null,n=&gt;t(n,-.74,-2,.48,3,1.26,0),n=&gt;t(n,-.74,-2,1.74,3,0,0),n=&gt;t(n,.52,-2,-.78,3,1.26,0),t=&gt;t&gt;0?1:0,t=&gt;t&lt;1?0:1,t=&gt;t&lt;.5?0:1];function e(t,n){return t[0]-n[0]}function i(t,n){return!n||t&gt;=n[0]&amp;&amp;t&lt;=n[1]}function r(t,n,e){return!t||t[0]&lt;=0&amp;&amp;t[1]&gt;=n?null:(1!==e&amp;&amp;(t[0]/=e,t[1]/=e),t)}function s(t){return t}class o{constructor(t,n,e,i,r){this.d=t,this.m=e,this.vis=i,i&amp;&amp;null!=r?this.h=r:1===n.length&amp;&amp;(this.value=n[0][1],n=null),this.k=n}get isAnimated(){return null!=(this.vis||this.k)}update(t){if(!this.k)return!1;const n=null==this.h||i(t,this.vis)?function(t,n,e){if(t&lt;=n[0][0])return n[0][1];const i=n.length-1;if(t&gt;n[i][0])return n[i][1];let r=1;for(;r&lt;i&amp;&amp;!(t&lt;=n[r][0]);r++);const s=n[r-1],o=n[r];return s[0]===t?s[1]:o[0]===t?o[1]:(t=(t-s[0])/(o[0]-s[0]),e(s[1],o[1],s[2]?s[2](t):t))}(t,this.k,this.d[0]):this.h;return!(void 0!==this.value&amp;&amp;this.d[2](n,this.value)||(this.value=n,this.s=null,0))}toString(){return this.s??=this.d[1](this.value,this.m)}}class u{constructor(t,n,e,i){this.d=t,this.m=e,this.c=new Array(n.length),this.vis=i;const r=[],s=this.d[3];for(let t=0;t&lt;n.length;t++)n[t].isAnimated?r.push([t,n[t]]):this.c[t]=s?n[t].toString():n[t].value;0===r.length?(this.a=null,this.value=this.d[0](this.c,this.m)):this.a=r}get isAnimated(){return null!=(this.vis||this.a)}update(t){if(null==this.a)return!1;let n=!1;const e=this.c;if(this.d[3])for(const[i,r]of this.a)r.update(t)&amp;&amp;(e[i]=r.toString(),n=!0);else for(const[i,r]of this.a)r.update(t)&amp;&amp;(e[i]=r.value,n=!0);if(!n)return!1;const i=this.d[0](e,this.m);return!(void 0!==this.value&amp;&amp;this.d[2](i,this.value)||(this.value=i,this.s=null,0))}toString(){return this.s??=this.d[1](this.value,this.m)}}class l{constructor(t,n){this.vis=n,this.p=t;const e=this.l=[];let i=!1;for(const n of t)if(n.isAnimated)i=!0;else{const t=n.toString();t&amp;&amp;e.push(t)}i?(this.a=!0,this.i=null):(this.a=!1,e.length?(this.i=e.join(" "),e.splice(0)):this.i=null,this.l=null),this.isAnimated=i||null!=n}update(t){let n=null;if(i(t,this.vis))if(this.a){const e=this.l;for(const n of this.p){if(!i(t,n.vis))continue;n.update(t);const r=n.toString();r&amp;&amp;e.push(r)}e.length&amp;&amp;(n=e.join(" "),e.splice(0))}else n=this.i;return n!==this.value&amp;&amp;(this.value=n,!0)}toString(){return this.value||"none"}}const h=[t=&gt;1===t?null:[t,0,0,0,0,0,t,0,0,0,0,0,t,0,0,0,0,0,1,0],t=&gt;{if(1===t)return null;const n=(1-t)/2;return[t,0,0,0,n,0,t,0,0,n,0,0,t,0,n,0,0,0,1,0]},t=&gt;1===t?null:[.213+.787*t,.715-.715*t,.072-.072*t,0,0,.213-.213*t,.715+.285*t,.072-.072*t,0,0,.213-.213*t,.715-.715*t,.072+.928*t,0,0,0,0,0,1,0],t=&gt;{if(t%360==0)return null;t*=Math.PI/180;const n=Math.cos(t),e=Math.sin(t);return[.787*n+.213*(1-e),.715*(1-n-e),.072*(1-n)+.928*e,0,0,.213*(1-n)+.143*e,.715+.285*n+.14*e,.072*(1-n)-.283*e,0,0,.213*(1-n)-.787*e,.715*(1-n+e),.928*n+.072*(1+e),0,0,0,0,0,1,0]},t=&gt;{if(!t)return null;const n=t;return[t=-2*t+1,0,0,0,n,0,t,0,0,n,0,0,t,0,n,0,0,0,1,0]},t=&gt;t?[.2126+.7874*(t=1-t),.7152-.7152*t,.0722-.0722*t,0,0,.2126-.2126*t,.7152+.2848*t,.0722-.0722*t,0,0,.2126-.2126*t,.7152-.7152*t,.0722+.9278*t,0,0,0,0,0,1,0]:null,t=&gt;t?[.393+.607*(t=1-t),.769-.769*t,.189-.189*t,0,0,.349-.349*t,.686+.314*t,.168-.168*t,0,0,.272-.272*t,.534-.534*t,.131+.869*t,0,0,0,0,0,1,0]:null],c=new Array(20).fill(0);function a(t,n,e){t===e&amp;&amp;(t=t.slice()),n===e&amp;&amp;(n=n.slice());let i=0;for(let r=0;r&lt;20;r+=5){for(let s=0;s&lt;4;s++)e[i++]=t[r+0]*n[s+0]+t[r+1]*n[s+5]+t[r+2]*n[s+10]+t[r+3]*n[s+15];e[i++]=t[r+0]*n[4]+t[r+1]*n[9]+t[r+2]*n[14]+t[r+3]*n[19]+t[r+4]}}c[0]=c[6]=c[12]=c[18]=1;const f=[1,-1,0,0,-1,1,0,0],d=[0,1,1,1,1,0,0,0],p=[0,1,1,2,2,3,3,0],g=Math.PI/180,$=Math.PI/2,M=.47829;function m(t,n,e,i,r,s,o,u,l){const h=(new DOMMatrix).translateSelf(t,n).rotateSelf(e);return(s%=360)&amp;&amp;((o%=360)?h.rotateSelf(-o).skewXSelf(-s).rotateSelf(o):h.skewXSelf(-s)),h.scaleSelf(i,r).translateSelf(-u,-l)}function v(t,n=0,e=1){return t&lt;=n?n:t&gt;=e?e:t}function S(t,n,e){return t+(n-t)*e}function y(t,n,e){return Math.max(0,t+(n-t)*e)}function w(t,n,e){return v(t+(n-t)*e)}function _(t,n,e){return e&lt;.5?t:n}function A(t,n,e){if(t.length!==n.length)return _(t,n,e);const i=[];for(let r=0;r&lt;t.length;r++)i[r]=S(t[r],n[r],e);return i}function b(t,n,e){if(t.length!==n.length)return _(t,n,e);const i=[];for(let r=0;r&lt;t.length;r++)i[r]=Math.max(0,S(t[r],n[r],e));return i}function k(t,n,e){return Math.round(v(t+(n-t)*e,0,255))}function x(t){return Number.isInteger(t)?t.toString():(Math.round(1e9*t)/1e9).toString()}function I(t){return t.map(x).join(" ")}const P=/\*/g;let j,L;function E(){return x(j[L++])}function Z(){return j[L++]}function F(t,n){return L=0,j=t,n.replace(P,E)}function O(t,n){return n.replace("*",x(t))}function q(t){return`matrix(${t.a} ${t.b} ${t.c} ${t.d} ${t.e} ${t.f})`}function B(t,n){return t===n}function C(t,n){if(t===n)return!0;if(t.length!==n.length)return!1;for(let e=0;e&lt;t.length;e++)if(t[e]!==n[e])return!1;return!0}function D(t,n){return t.a===n.a&amp;&amp;t.b===n.b&amp;&amp;t.c===n.c&amp;&amp;t.d===n.d&amp;&amp;t.e===n.e&amp;&amp;t.f===n.f}const G=new Map([]);function N(t,n,e,i){G.set(t,[0,n,e,i])}function V(t,n,e){n[3]||(n[3]=!1),G.set(t,[1,n,e])}function X(t,n){return n&amp;&amp;n.length?n.map((n=&gt;z(t,n[0],n[1],n[2],n[3]))):null}function z(t,i,s,h,c){const a=G.get(i);if(!a)throw"Unknown property";if(2===a[0])return new l(X(t,s),r(h,t.d,t.s));if(h=a[2]?a[2](h,t):h,c=r(c,t.d,t.s),0===a[0]){const i=function(t,i,r){if(!t)return null;for(const e of t)e[0]=e[0]/i.s,r&amp;&amp;(e[1]=r(e[1],i)),e[2]=(s=e[2])&amp;&amp;"number"==typeof s?n[s]:null;var s;return t.sort(e)}(s,t,a[3]);return new o(a[1],i,h,c,function(t){return t&amp;&amp;3===t.length?t.pop():null}(c))}return new u(a[1],X(t,s),h,c)}function T(t,n){return"string"==typeof t?t:n.t[t]}N(0,[S,x,B]),N(1,[y,x,B]),N(2,[w,x,B]),N(3,[S,O,B],T),N(4,[y,O,B],T),N(5,[w,O,B],T),N(6,[A,I,C]),N(7,[b,I,C]),N(8,[A,F,C],T),N(9,[b,F,C],T),N(12,[_,s,B],null,(function(t,n){return"string"==typeof t?t:n.t[t]})),N(10,[function(t,n,e){return e&lt;=0?t:e&gt;=1?n:[k(t[0],n[0],e),k(t[1],n[1],e),k(t[2],n[2],e),w(t[3]??1,n[3]??1,e)]},function(t){return null==t[3]||1===t[3]?`rgb(${t[0]} ${t[1]} ${t[2]})`:`rgb(${t[0]} ${t[1]} ${t[2]} / ${t[3]})`},function(t,n){return t[0]===n[0]&amp;&amp;t[1]===n[1]&amp;&amp;t[2]===n[2]&amp;&amp;(t[3]??1)==(n[3]??1)}]),N(11,[_,function(t,n){return t?`url('#${n}:${t}')`:"none"},B],(function(t,n){return n.p})),V(13,[function([t,n,e,i,r,s],o){return function(t,n,e,i,r,s,o){if(2===t.length)return m(t[0],t[1],e,i[0],i[1],r,s,o[0],o[1]);const[u,l]=function(t,n){t*=n[1];let e=0;const i=n[0].getPointAtLength(t);if(n[2]){let r;t+.01&gt;n[1]?(r=n[0].getPointAtLength(t-.01),e+=180):r=n[0].getPointAtLength(t+.01),e+=180*Math.atan2(r.y-i.y,r.x-i.x)/Math.PI,n[2]&lt;0&amp;&amp;(e+=180)}return[i,e]}(n,t);return m(u.x,u.y,e+l,i[0],i[1],r,s,o[0],o[1])}(o,t,n,e,i,r,s)},q,D],(function(t){return t?"string"==typeof t[0]?function(t,n){const e=document.createElementNS("http://www.w3.org/2000/svg","path");return e.setAttribute("d",t),[e,e.getTotalLength(),n]}(t[0],t[1]):t:[0,0]})),V(14,[function([t,n,e]){return function(t,n,e){return(new DOMMatrix).translateSelf(t[0],t[1]).rotateSelf(n).scaleSelf(1,e).translateSelf(-t[0],-t[1])}(t,n,e)},q,D]),G.set(15,[2]),V(16,[function(t,n){return L=0,j=t,n.replace(P,Z)},s,B,!0],T),V(17,[function([t,n,e]){return function(t,n,e){if(!(e[0]||e[1]||e[2]||e[3]))return`M0 0h${t}v${n}h-${t}z`;const i=t&amp;&amp;n?Math.min(t/(e[0]+e[1]),n/(e[1]+e[2]),t/(e[2]+e[3]),n/(e[3]+e[0]),1):0,r=[];let s=e[0]*i,o=s,u=0;r[0]=`${o} ${u}`;let l,h,c,a=1;for(let g=1;g&lt;8;g++)l=(g+6)%8,s=e[p[g]]*i,h=t*d[g]+f[g]*s,c=n*d[l]+f[l]*s,!s||g%2?c===u?h!==o&amp;&amp;(r[a++]="h"+(h-o)):r[a++]="v"+(c-u):r[a++]=`a${s} ${s} 0 0 1 ${h-o} ${c-u}`,o=h,u=c;return s&amp;&amp;(r[a]=`a${s} ${s} 0 0 1 ${s-o} ${-u}`),`M${r.join("")}Z`}(t,n,e)},s,B]),V(18,[function([t,n,e,i]){return function(t,n,e,i){i=i*g-$;const r=2*Math.PI/t,s=[];let o,u,l,h,c,a,f=n*Math.cos(i),d=n*Math.sin(i);if(s[0]=`${f} ${d}`,!e){for(let e=1;e&lt;=t;e++)f=n*Math.cos(i),d=n*Math.sin(i),s[e]=`${f} ${d}`,i+=r;return`M${s.join("L")}Z`}o=(e*=n/4)*Math.cos(i-$),u=e*Math.sin(i-$),i+=r;for(let p=1;p&lt;=t;p++)l=n*Math.cos(i),h=n*Math.sin(i),c=e*Math.cos(i-$),a=e*Math.sin(i-$),s[p]=`${f-o} ${d-u} ${l+c} ${h+a} ${l} ${h}`,f=l,d=h,o=c,u=a,i+=r;return`M${s.join("C")}Z`}(t,n,e,i)},s,B]),V(19,[function([t,n,e,i,r,s,o,u]){return function(t,n,e,i,r,s,o,u){const l=2*Math.PI/t,h=[(o+u)*g-$,(s+u)*g-$-l/2],c=[e,n],a=[];let f=c[0]*Math.cos(h[0]),d=c[0]*Math.sin(h[0]);a[0]=`${f} ${d}`;const p=2*t;if(!i&amp;&amp;!r){h[0]+=l,h[1]+=l;for(let t=1;t&lt;p;t++){const n=t%2;f=c[n]*Math.cos(h[n]),d=c[n]*Math.sin(h[n]),a[t]=`${f} ${d}`,h[n]+=l}return`M${a.join("L")}Z`}const m=[r*e*M,i*n*M];let v,S,y,w,_,A;v=m[0]*Math.cos(h[0]-$),S=m[0]*Math.sin(h[0]-$),h[0]+=l,h[1]+=l;for(let t=1;t&lt;=p;t++){const n=t%2;y=c[n]*Math.cos(h[n]),w=c[n]*Math.sin(h[n]),_=m[n]*Math.cos(h[n]-$),A=m[n]*Math.sin(h[n]-$),a[t]=`${f-v} ${d-S} ${y+_} ${w+A} ${y} ${w}`,f=y,d=w,v=_,S=A,h[n]+=l}return`M${a.join("C")}Z`}(t,n,e,i,r,s,o,u)},s,B]),V(20,[function(t){let n;for(let e=0;e&lt;t.length;e++){if(!h[e])continue;const i=h[e](t[e]);i&amp;&amp;(n?a(n,i,n):n=i)}return n||c},I,C]);class U{constructor(t,n,e,i){this.t=t,this.p=n,this.c=e,this.v=i,this.iv=null==i}update(t){const n=this.t;let e=!1;if(this.v){const r=i(t,this.v);if(this.iv===r){if(!r)return!1}else{if(this.iv=r,n.style.display=r?"inline":"none",!r)return!0;e=!0}}if(this.c)for(const n of this.c)n.update(t)&amp;&amp;(e=!0);if(this.p)for(const[i,r]of this.p)r.update(t)&amp;&amp;(e=!0,n.setAttribute(i,r.toString()));return e}}function H(t,n){const e=n.r.getElementById("string"==typeof t[0]?t[0]:`${n.p}:${t[0]}`);if(!e)return null;let i;if(t[1])for(const r of t[1]){const t=z(n,r[1],r[2],r[3],r[4]);if(!t)continue;const s="string"==typeof r[0]?r[0]:n.t[r[0]];t.isAnimated?(i??=new Map).set(s,t):e.setAttribute(s,t.toString())}const s=J(n,t[2]||null),o=r(t[3]||null,n.d,n.s);return i||s||o?new U(e,i,s,o):null}function J(t,n){if(!n||!n.length)return null;let e;for(const i of n){const n=H(i,t);n&amp;&amp;(e??=[]).push(n)}return e}const K=[null,t=&gt;t.play(),t=&gt;t.pause(),t=&gt;t.stop(),t=&gt;t.reverse(),t=&gt;t.restart(),t=&gt;t.toggle()];class Q{constructor(t,n,e,i,r,s){this.alternate=!1,this.time=0,this._fo=null,this._to=0,this._frame=t=&gt;{null===this._fo&amp;&amp;(this._fo=t),this.seek((t-this._fo)*this.speed+this._to)&amp;&amp;(this._fi=requestAnimationFrame(this._frame))},this.root=t,this.targets=n,this.duration=e,this.repeat=i||1/0,this.alternate=!!r,s||=1,this.speed=Math.abs(s),this.direction=Math.sign(s)}seek(t){t=Math.round(t);const n=this.duration;if(t&gt;=n*this.repeat){let t=this.direction&lt;0?0:n;if(this.alternate&amp;&amp;(this.repeat-1)%2!=1||(t=n-t),this.time!==t)for(const n of this.targets)n.update(t);return!1}if(this.time===t)return!0;this.time=t;const e=Math.trunc(t/n);t%=n,this.alternate&amp;&amp;e%2==1&amp;&amp;(t=n-t),this.direction&lt;0&amp;&amp;(t=n-t);for(const n of this.targets)n.update(t);return!0}play(){this._fi||(this._fo=null,this._to=this.time,this._fi=requestAnimationFrame(this._frame))}pause(){this._fi&amp;&amp;(cancelAnimationFrame(this._fi),this._fi=0)}toggle(){this._fi?this.pause():this.play()}stop(){this.pause(),this.seek(0)}reverse(){this.direction=-this.direction,this._fo=null,this._to=this.time}restart(){this.stop(),this.play()}}function R(t,n,e){e&amp;&amp;K[e]&amp;&amp;t.root.addEventListener(n,(()=&gt;K[e](t)))}const W="ExpressiveAnimatorPlayer";window[W]||(window[W]=function(t,n,e){if(!n)return;const i=document.getElementById(`${t.prefix}:0`);if(!(i instanceof SVGSVGElement))return;const r=function(t,n,e,i,r,s){return J({r:n,d:i,s:1,p:e,t:s,e:J},t)}(n,i,t.prefix,t.duration,0,e);r&amp;&amp;function(t,n=0,e){if(function(t,n){n&amp;&amp;(1!==n?2===n&amp;&amp;new IntersectionObserver((n=&gt;{for(const e of n)if(e.target===t.root)return void(e.isIntersecting?t.play():t.pause())}),{root:null,threshold:0}).observe(t.root):"complete"===document.readyState?t.play():document.addEventListener("readystatechange",(()=&gt;{"complete"===document.readyState&amp;&amp;t.play()})))}(t,n),!e)return;const i=["click","mouseenter","mouseleave"];for(let n=0;n&lt;3;n++)R(t,i[n],e[n])}(new Q(i,r,t.duration,t.repeat,t.alternate,t.speed),t.load||0,t.actions)})}();

window["ExpressiveAnimatorPlayer"](
{"prefix":"eaf-dae9","duration":1000,"speed":1,"load":1,"actions":[0,0,0]},
[[2,[[0,13,[[0,[[0,0,[0,0,0,0.5800000000000001,1]],[500,0.5,1],[1000,1]]],[0,[[0,0]]],[6,[[0,[1,1]]]],[0,[[0,0]]],[0,[[0,0]]],[6,[[0,[2625.00439453125,2911.9605712890625]]]]],["M 2625.00439453 2911.96057129 L 2625.00439453 3154.29086485 L 2625.00439453 2911.96057129",0]],[1,2,[[0,1,1],[500,0.77,[0,0,0,0.5800000000000001,1]],[1000,1]]]]]],
["transform","opacity"]
);</script></svg>
