<svg xmlns="http://www.w3.org/2000/svg" xml:space="preserve" style="enable-background:new 0 0 900 82.89" viewBox="0 0 900 82.89"><path d="m0 11 6.8-1.5C13.7 8 27.3 5 41 5.8c13.7.9 27.3 5.5 41 11.9 13.7 6.3 25.76 32.51 39.46 31.21 13.7-1.4 28.84-30.21 42.54-36.11 13.7-5.8 30.89-.71 44.39 5.09 13.5 5.9 23.67 17.29 37.17 20.49S272.3 30.3 286 23.5s27.23-10.05 40.93-12.05S354.3 8.7 368 12s28.06 16.55 41.76 15.55S436.3 11.3 450 11.8s27.13 27.18 40.83 26.28c13.7-.8 28.45-20.53 42.15-22.83 13.7-2.4 26.1-1.25 39.8 5.85 13.7 7.2 26.69 30.81 40.39 31.61 13.7.9 28.13-27.42 41.63-29.02 13.5-1.7 26.9 4.3 40.4 6.3s27.1 0 40.8-5.3c13.7-5.4 27.3-14 41-16.5s28.52 13.49 42.22 13.49S845.3 5.7 859 3.7s27.3-2.4 34.2-2.5L900 1V0H0v11z" style="fill:#06f"/></svg>